<svg width="297" height="85" viewBox="0 0 297 85" fill="none" xmlns="http://www.w3.org/2000/svg">
<path d="M274.601 47.1983H236.521L240.074 27.4992C240.75 23.7558 244.451 20.6909 248.301 20.6909H279.382C283.231 20.6909 285.829 23.7537 285.153 27.4992L282.828 40.39C282.152 44.1355 278.449 47.1983 274.601 47.1983Z" fill="#E20613"/>
<path d="M250.645 27.1165H245.49C244.892 27.1165 244.666 27.3254 244.557 27.9134L242.501 39.9103C242.388 40.466 242.557 40.662 243.155 40.662H245.262C245.86 40.662 246.088 40.466 246.201 39.9103L246.758 36.8411H249.041C251.867 36.8411 253.824 35.4411 254.309 32.3288C254.807 29.1281 253.357 27.1165 250.645 27.1165ZM249.171 33.522H247.34L247.825 30.4334H249.656C250.554 30.4334 250.952 31.0666 250.817 31.9906C250.667 32.9146 250.047 33.522 249.171 33.522Z" fill="white"/>
<path d="M263.254 27.1138H257.929C257.331 27.1138 257.103 27.3227 256.99 27.9107L254.938 39.9808C254.824 40.4827 254.99 40.6615 255.588 40.6615H257.699C258.299 40.6615 258.525 40.4827 258.634 39.9808L259.273 36.8384H259.758C260.577 36.8384 260.71 37.1141 260.917 37.6655L261.665 39.8839C261.852 40.4482 262.243 40.6615 263.232 40.6615H265.076C265.637 40.6615 265.826 40.3039 265.674 39.8688L264.652 37.099C264.55 36.8384 264.445 36.5627 264.328 36.3021C265.587 35.5461 266.474 34.2925 266.763 32.1624C267.274 28.8993 265.828 27.1138 263.254 27.1138ZM263.269 31.9535C263.141 32.9141 262.615 33.5215 261.83 33.5215H259.814L260.262 30.4328H262.26C263.063 30.4307 263.408 31.0208 263.269 31.9535Z" fill="white"/>
<path d="M267.68 32.1452L267.102 35.4018C266.565 38.5765 268.241 40.7756 271.922 40.7756C275.853 40.7756 278.084 38.975 278.645 35.7959L279.206 32.5393C279.765 29.371 278.084 27.1138 274.397 27.1138C270.466 27.1138 268.222 28.9747 267.68 32.1452ZM275.688 32.1602L274.992 35.7248C274.771 36.8599 273.857 37.4587 272.479 37.4587C271.085 37.4587 270.426 36.8621 270.631 35.7248L271.327 32.1602C271.548 31.0252 272.461 30.4328 273.86 30.4328C275.231 30.4328 275.89 31.0252 275.688 32.1602Z" fill="white"/>
<path d="M31.8374 21.7119H19.7118C18.1115 21.7119 17.5136 22.2547 17.2157 23.7904L11.7236 55.2645C11.4214 56.8002 11.8737 57.3473 13.4695 57.3473H25.7496C35.6271 57.3473 41.7193 52.7919 43.2522 44.1076L44.5415 36.4765C46.0852 27.747 41.6693 21.7119 31.8374 21.7119ZM34.8335 35.8627L33.5877 43.1879C32.9376 46.7978 30.8895 48.6824 26.8454 48.6824H22.7535L25.9496 30.3704H29.9937C34.0378 30.3704 35.4793 32.2507 34.8335 35.8627Z" fill="white"/>
<path d="M51.4422 23.7774L45.8631 55.2817C45.6153 56.7808 46.0153 57.2805 47.5221 57.2805H53.4512C54.9601 57.2805 55.5624 56.7808 55.8146 55.2817L61.3893 23.7774C61.6872 22.2762 61.2371 21.7722 59.7304 21.7722H53.8034C52.2945 21.7722 51.7444 22.2762 51.4422 23.7774Z" fill="white"/>
<path d="M64.6311 30.8484C62.9895 40.9305 70.5537 42.8432 76.3785 43.6724C79.9812 44.1355 82.7446 44.7084 82.4032 46.7244C81.9532 48.9471 79.5854 49.6708 75.7545 49.6708C72.8345 49.6708 71.1342 48.7382 70.5515 46.929C70.0645 45.4278 69.434 45.2748 67.8837 45.7896L62.9874 47.5515C61.4393 48.1179 60.8892 48.8438 61.1371 50.3881C62.1372 55.6133 67.3467 58.3293 74.626 58.3293C84.6775 58.3293 90.7327 55.1028 92.0438 47.5515C93.681 38.0875 86.7148 35.3995 81.1074 34.5702C77.0525 34.1028 73.9498 33.6376 74.2912 31.4149C74.6282 29.6078 76.3176 28.7247 80.1486 28.7247C82.6924 28.7247 84.2948 29.4505 84.921 31.4149C85.4559 32.9161 85.9386 33.1207 87.3431 32.5025L92.1416 30.4844C93.7353 29.8124 94.1332 29.2955 93.6332 27.8761C92.1416 23.5124 88.7955 20.9299 81.5031 20.9299C71.232 20.9321 65.7965 24.4536 64.6311 30.8484Z" fill="white"/>
<path d="M189.678 21.7097H175.452C173.852 21.7097 173.254 22.2525 172.956 23.7882L167.464 55.1676C167.162 56.7291 167.614 57.2805 169.21 57.2805H174.854C176.45 57.2805 177.05 56.7291 177.35 55.1676L179.046 45.4042H180.344C182.54 45.4042 182.888 46.2614 183.436 47.9737L185.434 54.866C185.932 56.6257 186.982 57.2805 189.628 57.2805H194.694C196.242 57.2805 196.757 56.1734 196.335 54.8143L193.522 46.2097C193.244 45.4042 192.961 44.7516 192.631 44.142C196.098 42.3694 198.538 39.4273 199.334 34.4282C200.714 26.362 196.755 21.7097 189.678 21.7097ZM189.726 33.9349C189.376 36.1836 187.98 37.6094 185.884 37.6094H180.494L181.69 30.3703H187.032C189.18 30.3703 190.102 31.7445 189.726 33.9349Z" fill="white"/>
<path d="M203.313 34.2924L201.724 43.709C200.278 52.5613 204.854 58.3013 214.723 58.3013C224.77 58.3013 230.908 53.5973 232.456 44.8527L234.004 35.4361C235.5 26.5773 230.908 20.6887 221.018 20.6887C210.973 20.6909 204.807 25.5392 203.313 34.2924ZM224.318 34.3441L222.542 44.646C221.981 47.9241 219.646 49.645 216.143 49.645C212.59 49.645 210.873 47.9241 211.423 44.646L213.199 34.3441C213.756 31.066 216.091 29.3493 219.644 29.3493C223.151 29.3493 224.87 31.066 224.318 34.3441Z" fill="white"/>
<path d="M167.577 18.6793C167.222 18.4768 166.764 18.466 166.266 18.5608L136.794 48.4325H136.796L157.186 71.7952C158.13 72.4242 159.354 71.8491 159.597 70.6623C160.828 64.6122 168.203 21.3802 168.179 20.1417C168.166 19.3189 167.933 18.8796 167.577 18.6793Z" fill="#E20613"/>
<path d="M164.885 19.0274C164.19 19.3505 126.558 37.921 113.852 44.2641C112.484 44.9468 112.626 47.133 114.063 47.5961L136.796 48.4339L166.268 18.5601C165.825 18.6441 165.353 18.8099 164.885 19.0274Z" fill="#A41915"/>
<path d="M110.923 45.9406C110.804 44.3769 111.602 42.9316 112.956 42.2553C116.196 40.6378 121.088 38.2104 126.578 35.4923C126.623 35.2747 126.676 35.0658 126.715 34.8418C128.052 26.9587 124.095 21.7141 116.65 21.7141H102.874C101.274 21.7141 100.676 22.2569 100.378 23.7926L94.8839 55.1224C94.5839 56.7163 95.034 57.2827 96.6299 57.2827H102.274C103.87 57.2827 104.47 56.7163 104.77 55.1224L106.264 46.3304H110.982C110.958 46.2012 110.934 46.0741 110.923 45.9406ZM109.112 30.3704H114.004C116.4 30.3704 117.479 31.8587 117.1 34.0449C116.7 36.2289 115.054 37.6698 112.706 37.6698H107.814L109.112 30.3704Z" fill="white"/>
</svg>
